<svg xmlns="http://www.w3.org/2000/svg" width="1000" height="280" viewBox="0 0 1000 280">
<rect width="100%" height="100%" fill="white"/>
<text x="20" y="25" font-size="16">Raw telemetry overlapping rank measurement windows</text>
<text x="20" y="60" font-size="13">kunlunxin/f396486d-9850-50e4-81c4-50f2e9f6ca87: Device utilization (%) [100, 100]</text>
<circle cx="30.000" cy="135.000" r="3" fill="#2463a4"><title>6.12787019321695: 100</title></circle>
<circle cx="50.153" cy="135.000" r="3" fill="#2463a4"><title>7.124806832987815: 100</title></circle>
<circle cx="70.343" cy="135.000" r="3" fill="#2463a4"><title>8.1235865149647: 100</title></circle>
<circle cx="90.637" cy="135.000" r="3" fill="#2463a4"><title>9.127521112095565: 100</title></circle>
<circle cx="110.822" cy="135.000" r="3" fill="#2463a4"><title>10.126045011915267: 100</title></circle>
<circle cx="131.262" cy="135.000" r="3" fill="#2463a4"><title>11.137144037988037: 100</title></circle>
<circle cx="151.252" cy="135.000" r="3" fill="#2463a4"><title>12.12604778027162: 100</title></circle>
<circle cx="171.464" cy="135.000" r="3" fill="#2463a4"><title>13.125891801901162: 100</title></circle>
<circle cx="191.707" cy="135.000" r="3" fill="#2463a4"><title>14.127317781094462: 100</title></circle>
<circle cx="211.887" cy="135.000" r="3" fill="#2463a4"><title>15.125593196135014: 100</title></circle>
<circle cx="232.085" cy="135.000" r="3" fill="#2463a4"><title>16.124765262939036: 100</title></circle>
<circle cx="252.231" cy="135.000" r="3" fill="#2463a4"><title>17.121355723123997: 100</title></circle>
<circle cx="272.539" cy="135.000" r="3" fill="#2463a4"><title>18.125960615929216: 100</title></circle>
<circle cx="292.763" cy="135.000" r="3" fill="#2463a4"><title>19.126403625123203: 100</title></circle>
<circle cx="312.993" cy="135.000" r="3" fill="#2463a4"><title>20.127158418297768: 100</title></circle>
<circle cx="333.194" cy="135.000" r="3" fill="#2463a4"><title>21.126466322224587: 100</title></circle>
<circle cx="353.461" cy="135.000" r="3" fill="#2463a4"><title>22.129075746051967: 100</title></circle>
<circle cx="373.755" cy="135.000" r="3" fill="#2463a4"><title>23.132988773286343: 100</title></circle>
<circle cx="393.914" cy="135.000" r="3" fill="#2463a4"><title>24.130201330874115: 100</title></circle>
<circle cx="414.126" cy="135.000" r="3" fill="#2463a4"><title>25.130077532026917: 100</title></circle>
<circle cx="434.357" cy="135.000" r="3" fill="#2463a4"><title>26.13087397487834: 100</title></circle>
<circle cx="454.558" cy="135.000" r="3" fill="#2463a4"><title>27.13019800791517: 100</title></circle>
<circle cx="474.755" cy="135.000" r="3" fill="#2463a4"><title>28.129283036105335: 100</title></circle>
<circle cx="494.887" cy="135.000" r="3" fill="#2463a4"><title>29.12520169094205: 100</title></circle>
<circle cx="515.143" cy="135.000" r="3" fill="#2463a4"><title>30.127233127132058: 100</title></circle>
<circle cx="535.368" cy="135.000" r="3" fill="#2463a4"><title>31.127736286260188: 100</title></circle>
<circle cx="555.582" cy="135.000" r="3" fill="#2463a4"><title>32.12770170485601: 100</title></circle>
<circle cx="575.815" cy="135.000" r="3" fill="#2463a4"><title>33.12861678516492: 100</title></circle>
<circle cx="596.003" cy="135.000" r="3" fill="#2463a4"><title>34.127285432070494: 100</title></circle>
<circle cx="615.909" cy="135.000" r="3" fill="#2463a4"><title>35.11202167207375: 100</title></circle>
<circle cx="636.472" cy="135.000" r="3" fill="#2463a4"><title>36.12923297891393: 100</title></circle>
<circle cx="656.664" cy="135.000" r="3" fill="#2463a4"><title>37.12807680293918: 100</title></circle>
<circle cx="676.896" cy="135.000" r="3" fill="#2463a4"><title>38.12893597409129: 100</title></circle>
<circle cx="697.128" cy="135.000" r="3" fill="#2463a4"><title>39.12978794518858: 100</title></circle>
<circle cx="717.378" cy="135.000" r="3" fill="#2463a4"><title>40.13155227713287: 100</title></circle>
<circle cx="737.586" cy="135.000" r="3" fill="#2463a4"><title>41.131191313266754: 100</title></circle>
<circle cx="757.785" cy="135.000" r="3" fill="#2463a4"><title>42.13042288925499: 100</title></circle>
<circle cx="778.029" cy="135.000" r="3" fill="#2463a4"><title>43.13184839813039: 100</title></circle>
<circle cx="797.926" cy="135.000" r="3" fill="#2463a4"><title>44.116139226127416: 100</title></circle>
<circle cx="818.455" cy="135.000" r="3" fill="#2463a4"><title>45.13170573906973: 100</title></circle>
<circle cx="838.678" cy="135.000" r="3" fill="#2463a4"><title>46.132070490159094: 100</title></circle>
<circle cx="858.918" cy="135.000" r="3" fill="#2463a4"><title>47.13331988314167: 100</title></circle>
<circle cx="879.082" cy="135.000" r="3" fill="#2463a4"><title>48.130821553990245: 100</title></circle>
<circle cx="899.284" cy="135.000" r="3" fill="#2463a4"><title>49.130192247219384: 100</title></circle>
<circle cx="919.531" cy="135.000" r="3" fill="#2463a4"><title>50.13178815227002: 100</title></circle>
<circle cx="939.760" cy="135.000" r="3" fill="#2463a4"><title>51.1324918163009: 100</title></circle>
<circle cx="960.000" cy="135.000" r="3" fill="#2463a4"><title>52.133723439183086: 100</title></circle>
<text x="20" y="170" font-size="13">kunlunxin/f396486d-9850-50e4-81c4-50f2e9f6ca87: Allocated device memory (MiB) [228, 228]</text>
<circle cx="30.000" cy="245.000" r="3" fill="#2463a4"><title>6.12787019321695: 228</title></circle>
<circle cx="50.153" cy="245.000" r="3" fill="#2463a4"><title>7.124806832987815: 228</title></circle>
<circle cx="70.343" cy="245.000" r="3" fill="#2463a4"><title>8.1235865149647: 228</title></circle>
<circle cx="90.637" cy="245.000" r="3" fill="#2463a4"><title>9.127521112095565: 228</title></circle>
<circle cx="110.822" cy="245.000" r="3" fill="#2463a4"><title>10.126045011915267: 228</title></circle>
<circle cx="131.262" cy="245.000" r="3" fill="#2463a4"><title>11.137144037988037: 228</title></circle>
<circle cx="151.252" cy="245.000" r="3" fill="#2463a4"><title>12.12604778027162: 228</title></circle>
<circle cx="171.464" cy="245.000" r="3" fill="#2463a4"><title>13.125891801901162: 228</title></circle>
<circle cx="191.707" cy="245.000" r="3" fill="#2463a4"><title>14.127317781094462: 228</title></circle>
<circle cx="211.887" cy="245.000" r="3" fill="#2463a4"><title>15.125593196135014: 228</title></circle>
<circle cx="232.085" cy="245.000" r="3" fill="#2463a4"><title>16.124765262939036: 228</title></circle>
<circle cx="252.231" cy="245.000" r="3" fill="#2463a4"><title>17.121355723123997: 228</title></circle>
<circle cx="272.539" cy="245.000" r="3" fill="#2463a4"><title>18.125960615929216: 228</title></circle>
<circle cx="292.763" cy="245.000" r="3" fill="#2463a4"><title>19.126403625123203: 228</title></circle>
<circle cx="312.993" cy="245.000" r="3" fill="#2463a4"><title>20.127158418297768: 228</title></circle>
<circle cx="333.194" cy="245.000" r="3" fill="#2463a4"><title>21.126466322224587: 228</title></circle>
<circle cx="353.461" cy="245.000" r="3" fill="#2463a4"><title>22.129075746051967: 228</title></circle>
<circle cx="373.755" cy="245.000" r="3" fill="#2463a4"><title>23.132988773286343: 228</title></circle>
<circle cx="393.914" cy="245.000" r="3" fill="#2463a4"><title>24.130201330874115: 228</title></circle>
<circle cx="414.126" cy="245.000" r="3" fill="#2463a4"><title>25.130077532026917: 228</title></circle>
<circle cx="434.357" cy="245.000" r="3" fill="#2463a4"><title>26.13087397487834: 228</title></circle>
<circle cx="454.558" cy="245.000" r="3" fill="#2463a4"><title>27.13019800791517: 228</title></circle>
<circle cx="474.755" cy="245.000" r="3" fill="#2463a4"><title>28.129283036105335: 228</title></circle>
<circle cx="494.887" cy="245.000" r="3" fill="#2463a4"><title>29.12520169094205: 228</title></circle>
<circle cx="515.143" cy="245.000" r="3" fill="#2463a4"><title>30.127233127132058: 228</title></circle>
<circle cx="535.368" cy="245.000" r="3" fill="#2463a4"><title>31.127736286260188: 228</title></circle>
<circle cx="555.582" cy="245.000" r="3" fill="#2463a4"><title>32.12770170485601: 228</title></circle>
<circle cx="575.815" cy="245.000" r="3" fill="#2463a4"><title>33.12861678516492: 228</title></circle>
<circle cx="596.003" cy="245.000" r="3" fill="#2463a4"><title>34.127285432070494: 228</title></circle>
<circle cx="615.909" cy="245.000" r="3" fill="#2463a4"><title>35.11202167207375: 228</title></circle>
<circle cx="636.472" cy="245.000" r="3" fill="#2463a4"><title>36.12923297891393: 228</title></circle>
<circle cx="656.664" cy="245.000" r="3" fill="#2463a4"><title>37.12807680293918: 228</title></circle>
<circle cx="676.896" cy="245.000" r="3" fill="#2463a4"><title>38.12893597409129: 228</title></circle>
<circle cx="697.128" cy="245.000" r="3" fill="#2463a4"><title>39.12978794518858: 228</title></circle>
<circle cx="717.378" cy="245.000" r="3" fill="#2463a4"><title>40.13155227713287: 228</title></circle>
<circle cx="737.586" cy="245.000" r="3" fill="#2463a4"><title>41.131191313266754: 228</title></circle>
<circle cx="757.785" cy="245.000" r="3" fill="#2463a4"><title>42.13042288925499: 228</title></circle>
<circle cx="778.029" cy="245.000" r="3" fill="#2463a4"><title>43.13184839813039: 228</title></circle>
<circle cx="797.926" cy="245.000" r="3" fill="#2463a4"><title>44.116139226127416: 228</title></circle>
<circle cx="818.455" cy="245.000" r="3" fill="#2463a4"><title>45.13170573906973: 228</title></circle>
<circle cx="838.678" cy="245.000" r="3" fill="#2463a4"><title>46.132070490159094: 228</title></circle>
<circle cx="858.918" cy="245.000" r="3" fill="#2463a4"><title>47.13331988314167: 228</title></circle>
<circle cx="879.082" cy="245.000" r="3" fill="#2463a4"><title>48.130821553990245: 228</title></circle>
<circle cx="899.284" cy="245.000" r="3" fill="#2463a4"><title>49.130192247219384: 228</title></circle>
<circle cx="919.531" cy="245.000" r="3" fill="#2463a4"><title>50.13178815227002: 228</title></circle>
<circle cx="939.760" cy="245.000" r="3" fill="#2463a4"><title>51.1324918163009: 228</title></circle>
<circle cx="960.000" cy="245.000" r="3" fill="#2463a4"><title>52.133723439183086: 228</title></circle>
</svg>
