<svg xmlns="http://www.w3.org/2000/svg" width="1000" height="280" viewBox="0 0 1000 280">
<rect width="100%" height="100%" fill="white"/>
<text x="20" y="25" font-size="16">Raw telemetry overlapping rank measurement windows</text>
<text x="20" y="60" font-size="13">kunlunxin/f396486d-9850-50e4-81c4-50f2e9f6ca87: Device utilization (%) [0, 0]</text>
<circle cx="30.000" cy="135.000" r="3" fill="#2463a4"><title>8.121644855011255: 0</title></circle>
<circle cx="75.998" cy="135.000" r="3" fill="#2463a4"><title>9.110915534198284: 0</title></circle>
<circle cx="123.228" cy="135.000" r="3" fill="#2463a4"><title>10.12667989032343: 0</title></circle>
<circle cx="169.198" cy="135.000" r="3" fill="#2463a4"><title>11.11535177193582: 0</title></circle>
<circle cx="216.001" cy="135.000" r="3" fill="#2463a4"><title>12.12192363012582: 0</title></circle>
<circle cx="262.663" cy="135.000" r="3" fill="#2463a4"><title>13.125466971192509: 0</title></circle>
<circle cx="308.978" cy="135.000" r="3" fill="#2463a4"><title>14.121554357931018: 0</title></circle>
<circle cx="355.755" cy="135.000" r="3" fill="#2463a4"><title>15.127594197168946: 0</title></circle>
<circle cx="402.862" cy="135.000" r="3" fill="#2463a4"><title>16.140712548978627: 0</title></circle>
<circle cx="448.723" cy="135.000" r="3" fill="#2463a4"><title>17.127025749068707: 0</title></circle>
<circle cx="495.315" cy="135.000" r="3" fill="#2463a4"><title>18.129065651912242: 0</title></circle>
<circle cx="541.782" cy="135.000" r="3" fill="#2463a4"><title>19.128419030923396: 0</title></circle>
<circle cx="588.097" cy="135.000" r="3" fill="#2463a4"><title>20.1245129769668: 0</title></circle>
<circle cx="634.580" cy="135.000" r="3" fill="#2463a4"><title>21.124216749332845: 0</title></circle>
<circle cx="681.557" cy="135.000" r="3" fill="#2463a4"><title>22.134531449060887: 0</title></circle>
<circle cx="727.573" cy="135.000" r="3" fill="#2463a4"><title>23.12418706016615: 0</title></circle>
<circle cx="774.143" cy="135.000" r="3" fill="#2463a4"><title>24.125760982278734: 0</title></circle>
<circle cx="820.840" cy="135.000" r="3" fill="#2463a4"><title>25.130057108122855: 0</title></circle>
<circle cx="867.218" cy="135.000" r="3" fill="#2463a4"><title>26.127509105950594: 0</title></circle>
<circle cx="913.210" cy="135.000" r="3" fill="#2463a4"><title>27.116648708004504: 0</title></circle>
<circle cx="960.000" cy="135.000" r="3" fill="#2463a4"><title>28.122949671931565: 0</title></circle>
<text x="20" y="170" font-size="13">kunlunxin/f396486d-9850-50e4-81c4-50f2e9f6ca87: Allocated device memory (MiB) [676, 676]</text>
<circle cx="30.000" cy="245.000" r="3" fill="#2463a4"><title>8.121644855011255: 676</title></circle>
<circle cx="75.998" cy="245.000" r="3" fill="#2463a4"><title>9.110915534198284: 676</title></circle>
<circle cx="123.228" cy="245.000" r="3" fill="#2463a4"><title>10.12667989032343: 676</title></circle>
<circle cx="169.198" cy="245.000" r="3" fill="#2463a4"><title>11.11535177193582: 676</title></circle>
<circle cx="216.001" cy="245.000" r="3" fill="#2463a4"><title>12.12192363012582: 676</title></circle>
<circle cx="262.663" cy="245.000" r="3" fill="#2463a4"><title>13.125466971192509: 676</title></circle>
<circle cx="308.978" cy="245.000" r="3" fill="#2463a4"><title>14.121554357931018: 676</title></circle>
<circle cx="355.755" cy="245.000" r="3" fill="#2463a4"><title>15.127594197168946: 676</title></circle>
<circle cx="402.862" cy="245.000" r="3" fill="#2463a4"><title>16.140712548978627: 676</title></circle>
<circle cx="448.723" cy="245.000" r="3" fill="#2463a4"><title>17.127025749068707: 676</title></circle>
<circle cx="495.315" cy="245.000" r="3" fill="#2463a4"><title>18.129065651912242: 676</title></circle>
<circle cx="541.782" cy="245.000" r="3" fill="#2463a4"><title>19.128419030923396: 676</title></circle>
<circle cx="588.097" cy="245.000" r="3" fill="#2463a4"><title>20.1245129769668: 676</title></circle>
<circle cx="634.580" cy="245.000" r="3" fill="#2463a4"><title>21.124216749332845: 676</title></circle>
<circle cx="681.557" cy="245.000" r="3" fill="#2463a4"><title>22.134531449060887: 676</title></circle>
<circle cx="727.573" cy="245.000" r="3" fill="#2463a4"><title>23.12418706016615: 676</title></circle>
<circle cx="774.143" cy="245.000" r="3" fill="#2463a4"><title>24.125760982278734: 676</title></circle>
<circle cx="820.840" cy="245.000" r="3" fill="#2463a4"><title>25.130057108122855: 676</title></circle>
<circle cx="867.218" cy="245.000" r="3" fill="#2463a4"><title>26.127509105950594: 676</title></circle>
<circle cx="913.210" cy="245.000" r="3" fill="#2463a4"><title>27.116648708004504: 676</title></circle>
<circle cx="960.000" cy="245.000" r="3" fill="#2463a4"><title>28.122949671931565: 676</title></circle>
</svg>
