<svg xmlns="http://www.w3.org/2000/svg" width="1000" height="280" viewBox="0 0 1000 280">
<rect width="100%" height="100%" fill="white"/>
<text x="20" y="25" font-size="16">Raw telemetry overlapping rank measurement windows</text>
<text x="20" y="60" font-size="13">kunlunxin/f396486d-9850-50e4-81c4-50f2e9f6ca87: Device utilization (%) [100, 100]</text>
<circle cx="30.000" cy="135.000" r="3" fill="#2463a4"><title>6.128401475958526: 100</title></circle>
<circle cx="50.127" cy="135.000" r="3" fill="#2463a4"><title>7.124177218880504: 100</title></circle>
<circle cx="70.476" cy="135.000" r="3" fill="#2463a4"><title>8.13093101978302: 100</title></circle>
<circle cx="90.568" cy="135.000" r="3" fill="#2463a4"><title>9.124968529678881: 100</title></circle>
<circle cx="110.811" cy="135.000" r="3" fill="#2463a4"><title>10.126464621629566: 100</title></circle>
<circle cx="131.008" cy="135.000" r="3" fill="#2463a4"><title>11.12568682199344: 100</title></circle>
<circle cx="151.059" cy="135.000" r="3" fill="#2463a4"><title>12.117691924795508: 100</title></circle>
<circle cx="171.192" cy="135.000" r="3" fill="#2463a4"><title>13.113755011931062: 100</title></circle>
<circle cx="191.667" cy="135.000" r="3" fill="#2463a4"><title>14.126758449710906: 100</title></circle>
<circle cx="211.880" cy="135.000" r="3" fill="#2463a4"><title>15.126769813708961: 100</title></circle>
<circle cx="231.822" cy="135.000" r="3" fill="#2463a4"><title>16.11337407073006: 100</title></circle>
<circle cx="252.334" cy="135.000" r="3" fill="#2463a4"><title>17.12821479095146: 100</title></circle>
<circle cx="272.647" cy="135.000" r="3" fill="#2463a4"><title>18.13317893864587: 100</title></circle>
<circle cx="292.730" cy="135.000" r="3" fill="#2463a4"><title>19.126731309574097: 100</title></circle>
<circle cx="313.011" cy="135.000" r="3" fill="#2463a4"><title>20.130117141641676: 100</title></circle>
<circle cx="333.220" cy="135.000" r="3" fill="#2463a4"><title>21.129942278843373: 100</title></circle>
<circle cx="353.359" cy="135.000" r="3" fill="#2463a4"><title>22.12634258856997: 100</title></circle>
<circle cx="373.582" cy="135.000" r="3" fill="#2463a4"><title>23.126836781855673: 100</title></circle>
<circle cx="393.887" cy="135.000" r="3" fill="#2463a4"><title>24.131410068832338: 100</title></circle>
<circle cx="414.047" cy="135.000" r="3" fill="#2463a4"><title>25.12881786795333: 100</title></circle>
<circle cx="434.243" cy="135.000" r="3" fill="#2463a4"><title>26.12800060864538: 100</title></circle>
<circle cx="454.468" cy="135.000" r="3" fill="#2463a4"><title>27.12862614961341: 100</title></circle>
<circle cx="474.650" cy="135.000" r="3" fill="#2463a4"><title>28.12709324574098: 100</title></circle>
<circle cx="494.956" cy="135.000" r="3" fill="#2463a4"><title>29.131726330611855: 100</title></circle>
<circle cx="515.084" cy="135.000" r="3" fill="#2463a4"><title>30.12754645384848: 100</title></circle>
<circle cx="535.318" cy="135.000" r="3" fill="#2463a4"><title>31.128612684551626: 100</title></circle>
<circle cx="555.548" cy="135.000" r="3" fill="#2463a4"><title>32.12945366092026: 100</title></circle>
<circle cx="575.806" cy="135.000" r="3" fill="#2463a4"><title>33.131733485963196: 100</title></circle>
<circle cx="595.929" cy="135.000" r="3" fill="#2463a4"><title>34.127259564585984: 100</title></circle>
<circle cx="616.183" cy="135.000" r="3" fill="#2463a4"><title>35.12933638365939: 100</title></circle>
<circle cx="636.404" cy="135.000" r="3" fill="#2463a4"><title>36.12977122887969: 100</title></circle>
<circle cx="656.626" cy="135.000" r="3" fill="#2463a4"><title>37.130238682962954: 100</title></circle>
<circle cx="676.859" cy="135.000" r="3" fill="#2463a4"><title>38.13121832581237: 100</title></circle>
<circle cx="697.063" cy="135.000" r="3" fill="#2463a4"><title>39.13079407764599: 100</title></circle>
<circle cx="717.342" cy="135.000" r="3" fill="#2463a4"><title>40.13409826159477: 100</title></circle>
<circle cx="737.499" cy="135.000" r="3" fill="#2463a4"><title>41.13134801387787: 100</title></circle>
<circle cx="757.649" cy="135.000" r="3" fill="#2463a4"><title>42.12823584396392: 100</title></circle>
<circle cx="777.952" cy="135.000" r="3" fill="#2463a4"><title>43.13272985164076: 100</title></circle>
<circle cx="798.107" cy="135.000" r="3" fill="#2463a4"><title>44.1298688868992: 100</title></circle>
<circle cx="818.354" cy="135.000" r="3" fill="#2463a4"><title>45.13155174488202: 100</title></circle>
<circle cx="838.740" cy="135.000" r="3" fill="#2463a4"><title>46.14014581590891: 100</title></circle>
<circle cx="858.790" cy="135.000" r="3" fill="#2463a4"><title>47.132100850809366: 100</title></circle>
<circle cx="879.019" cy="135.000" r="3" fill="#2463a4"><title>48.13291134685278: 100</title></circle>
<circle cx="899.350" cy="135.000" r="3" fill="#2463a4"><title>49.13876916700974: 100</title></circle>
<circle cx="919.371" cy="135.000" r="3" fill="#2463a4"><title>50.12930743070319: 100</title></circle>
<circle cx="939.342" cy="135.000" r="3" fill="#2463a4"><title>51.117353757843375: 100</title></circle>
<circle cx="960.000" cy="135.000" r="3" fill="#2463a4"><title>52.139397374819964: 100</title></circle>
<text x="20" y="170" font-size="13">kunlunxin/f396486d-9850-50e4-81c4-50f2e9f6ca87: Allocated device memory (MiB) [228, 228]</text>
<circle cx="30.000" cy="245.000" r="3" fill="#2463a4"><title>6.128401475958526: 228</title></circle>
<circle cx="50.127" cy="245.000" r="3" fill="#2463a4"><title>7.124177218880504: 228</title></circle>
<circle cx="70.476" cy="245.000" r="3" fill="#2463a4"><title>8.13093101978302: 228</title></circle>
<circle cx="90.568" cy="245.000" r="3" fill="#2463a4"><title>9.124968529678881: 228</title></circle>
<circle cx="110.811" cy="245.000" r="3" fill="#2463a4"><title>10.126464621629566: 228</title></circle>
<circle cx="131.008" cy="245.000" r="3" fill="#2463a4"><title>11.12568682199344: 228</title></circle>
<circle cx="151.059" cy="245.000" r="3" fill="#2463a4"><title>12.117691924795508: 228</title></circle>
<circle cx="171.192" cy="245.000" r="3" fill="#2463a4"><title>13.113755011931062: 228</title></circle>
<circle cx="191.667" cy="245.000" r="3" fill="#2463a4"><title>14.126758449710906: 228</title></circle>
<circle cx="211.880" cy="245.000" r="3" fill="#2463a4"><title>15.126769813708961: 228</title></circle>
<circle cx="231.822" cy="245.000" r="3" fill="#2463a4"><title>16.11337407073006: 228</title></circle>
<circle cx="252.334" cy="245.000" r="3" fill="#2463a4"><title>17.12821479095146: 228</title></circle>
<circle cx="272.647" cy="245.000" r="3" fill="#2463a4"><title>18.13317893864587: 228</title></circle>
<circle cx="292.730" cy="245.000" r="3" fill="#2463a4"><title>19.126731309574097: 228</title></circle>
<circle cx="313.011" cy="245.000" r="3" fill="#2463a4"><title>20.130117141641676: 228</title></circle>
<circle cx="333.220" cy="245.000" r="3" fill="#2463a4"><title>21.129942278843373: 228</title></circle>
<circle cx="353.359" cy="245.000" r="3" fill="#2463a4"><title>22.12634258856997: 228</title></circle>
<circle cx="373.582" cy="245.000" r="3" fill="#2463a4"><title>23.126836781855673: 228</title></circle>
<circle cx="393.887" cy="245.000" r="3" fill="#2463a4"><title>24.131410068832338: 228</title></circle>
<circle cx="414.047" cy="245.000" r="3" fill="#2463a4"><title>25.12881786795333: 228</title></circle>
<circle cx="434.243" cy="245.000" r="3" fill="#2463a4"><title>26.12800060864538: 228</title></circle>
<circle cx="454.468" cy="245.000" r="3" fill="#2463a4"><title>27.12862614961341: 228</title></circle>
<circle cx="474.650" cy="245.000" r="3" fill="#2463a4"><title>28.12709324574098: 228</title></circle>
<circle cx="494.956" cy="245.000" r="3" fill="#2463a4"><title>29.131726330611855: 228</title></circle>
<circle cx="515.084" cy="245.000" r="3" fill="#2463a4"><title>30.12754645384848: 228</title></circle>
<circle cx="535.318" cy="245.000" r="3" fill="#2463a4"><title>31.128612684551626: 228</title></circle>
<circle cx="555.548" cy="245.000" r="3" fill="#2463a4"><title>32.12945366092026: 228</title></circle>
<circle cx="575.806" cy="245.000" r="3" fill="#2463a4"><title>33.131733485963196: 228</title></circle>
<circle cx="595.929" cy="245.000" r="3" fill="#2463a4"><title>34.127259564585984: 228</title></circle>
<circle cx="616.183" cy="245.000" r="3" fill="#2463a4"><title>35.12933638365939: 228</title></circle>
<circle cx="636.404" cy="245.000" r="3" fill="#2463a4"><title>36.12977122887969: 228</title></circle>
<circle cx="656.626" cy="245.000" r="3" fill="#2463a4"><title>37.130238682962954: 228</title></circle>
<circle cx="676.859" cy="245.000" r="3" fill="#2463a4"><title>38.13121832581237: 228</title></circle>
<circle cx="697.063" cy="245.000" r="3" fill="#2463a4"><title>39.13079407764599: 228</title></circle>
<circle cx="717.342" cy="245.000" r="3" fill="#2463a4"><title>40.13409826159477: 228</title></circle>
<circle cx="737.499" cy="245.000" r="3" fill="#2463a4"><title>41.13134801387787: 228</title></circle>
<circle cx="757.649" cy="245.000" r="3" fill="#2463a4"><title>42.12823584396392: 228</title></circle>
<circle cx="777.952" cy="245.000" r="3" fill="#2463a4"><title>43.13272985164076: 228</title></circle>
<circle cx="798.107" cy="245.000" r="3" fill="#2463a4"><title>44.1298688868992: 228</title></circle>
<circle cx="818.354" cy="245.000" r="3" fill="#2463a4"><title>45.13155174488202: 228</title></circle>
<circle cx="838.740" cy="245.000" r="3" fill="#2463a4"><title>46.14014581590891: 228</title></circle>
<circle cx="858.790" cy="245.000" r="3" fill="#2463a4"><title>47.132100850809366: 228</title></circle>
<circle cx="879.019" cy="245.000" r="3" fill="#2463a4"><title>48.13291134685278: 228</title></circle>
<circle cx="899.350" cy="245.000" r="3" fill="#2463a4"><title>49.13876916700974: 228</title></circle>
<circle cx="919.371" cy="245.000" r="3" fill="#2463a4"><title>50.12930743070319: 228</title></circle>
<circle cx="939.342" cy="245.000" r="3" fill="#2463a4"><title>51.117353757843375: 228</title></circle>
<circle cx="960.000" cy="245.000" r="3" fill="#2463a4"><title>52.139397374819964: 228</title></circle>
</svg>
