<svg xmlns="http://www.w3.org/2000/svg" width="1000" height="280" viewBox="0 0 1000 280">
<rect width="100%" height="100%" fill="white"/>
<text x="20" y="25" font-size="16">Raw telemetry overlapping rank measurement windows</text>
<text x="20" y="60" font-size="13">kunlunxin/f396486d-9850-50e4-81c4-50f2e9f6ca87: Device utilization (%) [100, 100]</text>
<circle cx="30.000" cy="135.000" r="3" fill="#2463a4"><title>10.116195340175182: 100</title></circle>
<circle cx="50.564" cy="135.000" r="3" fill="#2463a4"><title>11.111293321009725: 100</title></circle>
<circle cx="71.499" cy="135.000" r="3" fill="#2463a4"><title>12.124323414172977: 100</title></circle>
<circle cx="92.171" cy="135.000" r="3" fill="#2463a4"><title>13.124661955982447: 100</title></circle>
<circle cx="112.905" cy="135.000" r="3" fill="#2463a4"><title>14.127972343936563: 100</title></circle>
<circle cx="133.411" cy="135.000" r="3" fill="#2463a4"><title>15.120284494012594: 100</title></circle>
<circle cx="154.153" cy="135.000" r="3" fill="#2463a4"><title>16.123995014000684: 100</title></circle>
<circle cx="174.840" cy="135.000" r="3" fill="#2463a4"><title>17.125051179900765: 100</title></circle>
<circle cx="195.450" cy="135.000" r="3" fill="#2463a4"><title>18.122388144023716: 100</title></circle>
<circle cx="216.155" cy="135.000" r="3" fill="#2463a4"><title>19.124278623145074: 100</title></circle>
<circle cx="236.699" cy="135.000" r="3" fill="#2463a4"><title>20.118415154982358: 100</title></circle>
<circle cx="257.501" cy="135.000" r="3" fill="#2463a4"><title>21.125036072917283: 100</title></circle>
<circle cx="278.124" cy="135.000" r="3" fill="#2463a4"><title>22.122991994023323: 100</title></circle>
<circle cx="298.211" cy="135.000" r="3" fill="#2463a4"><title>23.094996242783964: 100</title></circle>
<circle cx="319.468" cy="135.000" r="3" fill="#2463a4"><title>24.123640256933868: 100</title></circle>
<circle cx="340.154" cy="135.000" r="3" fill="#2463a4"><title>25.12463249405846: 100</title></circle>
<circle cx="360.887" cy="135.000" r="3" fill="#2463a4"><title>26.127919923048466: 100</title></circle>
<circle cx="381.262" cy="135.000" r="3" fill="#2463a4"><title>27.11385508812964: 100</title></circle>
<circle cx="402.047" cy="135.000" r="3" fill="#2463a4"><title>28.119662013836205: 100</title></circle>
<circle cx="422.682" cy="135.000" r="3" fill="#2463a4"><title>29.118175433017313: 100</title></circle>
<circle cx="443.521" cy="135.000" r="3" fill="#2463a4"><title>30.126618722919375: 100</title></circle>
<circle cx="464.110" cy="135.000" r="3" fill="#2463a4"><title>31.12290092976764: 100</title></circle>
<circle cx="484.811" cy="135.000" r="3" fill="#2463a4"><title>32.12464697100222: 100</title></circle>
<circle cx="505.693" cy="135.000" r="3" fill="#2463a4"><title>33.1351495180279: 100</title></circle>
<circle cx="526.162" cy="135.000" r="3" fill="#2463a4"><title>34.12562683690339: 100</title></circle>
<circle cx="546.870" cy="135.000" r="3" fill="#2463a4"><title>35.12769841076806: 100</title></circle>
<circle cx="567.365" cy="135.000" r="3" fill="#2463a4"><title>36.11945178313181: 100</title></circle>
<circle cx="587.943" cy="135.000" r="3" fill="#2463a4"><title>37.115241889841855: 100</title></circle>
<circle cx="608.824" cy="135.000" r="3" fill="#2463a4"><title>38.12567028775811: 100</title></circle>
<circle cx="629.444" cy="135.000" r="3" fill="#2463a4"><title>39.12349493196234: 100</title></circle>
<circle cx="649.889" cy="135.000" r="3" fill="#2463a4"><title>40.11282579600811: 100</title></circle>
<circle cx="670.836" cy="135.000" r="3" fill="#2463a4"><title>41.12644474580884: 100</title></circle>
<circle cx="691.563" cy="135.000" r="3" fill="#2463a4"><title>42.12941315211356: 100</title></circle>
<circle cx="712.030" cy="135.000" r="3" fill="#2463a4"><title>43.119814932812005: 100</title></circle>
<circle cx="732.602" cy="135.000" r="3" fill="#2463a4"><title>44.11532995617017: 100</title></circle>
<circle cx="753.526" cy="135.000" r="3" fill="#2463a4"><title>45.12782714981586: 100</title></circle>
<circle cx="774.162" cy="135.000" r="3" fill="#2463a4"><title>46.12640964798629: 100</title></circle>
<circle cx="794.883" cy="135.000" r="3" fill="#2463a4"><title>47.12913516908884: 100</title></circle>
<circle cx="815.479" cy="135.000" r="3" fill="#2463a4"><title>48.125761648174375: 100</title></circle>
<circle cx="836.177" cy="135.000" r="3" fill="#2463a4"><title>49.12736596306786: 100</title></circle>
<circle cx="856.643" cy="135.000" r="3" fill="#2463a4"><title>50.11771576479077: 100</title></circle>
<circle cx="876.962" cy="135.000" r="3" fill="#2463a4"><title>51.10093565378338: 100</title></circle>
<circle cx="898.058" cy="135.000" r="3" fill="#2463a4"><title>52.12177154608071: 100</title></circle>
<circle cx="918.835" cy="135.000" r="3" fill="#2463a4"><title>53.12718226201832: 100</title></circle>
<circle cx="939.199" cy="135.000" r="3" fill="#2463a4"><title>54.11260380875319: 100</title></circle>
<circle cx="960.000" cy="135.000" r="3" fill="#2463a4"><title>55.11918380111456: 100</title></circle>
<text x="20" y="170" font-size="13">kunlunxin/f396486d-9850-50e4-81c4-50f2e9f6ca87: Allocated device memory (MiB) [1062, 1062]</text>
<circle cx="30.000" cy="245.000" r="3" fill="#2463a4"><title>10.116195340175182: 1062</title></circle>
<circle cx="50.564" cy="245.000" r="3" fill="#2463a4"><title>11.111293321009725: 1062</title></circle>
<circle cx="71.499" cy="245.000" r="3" fill="#2463a4"><title>12.124323414172977: 1062</title></circle>
<circle cx="92.171" cy="245.000" r="3" fill="#2463a4"><title>13.124661955982447: 1062</title></circle>
<circle cx="112.905" cy="245.000" r="3" fill="#2463a4"><title>14.127972343936563: 1062</title></circle>
<circle cx="133.411" cy="245.000" r="3" fill="#2463a4"><title>15.120284494012594: 1062</title></circle>
<circle cx="154.153" cy="245.000" r="3" fill="#2463a4"><title>16.123995014000684: 1062</title></circle>
<circle cx="174.840" cy="245.000" r="3" fill="#2463a4"><title>17.125051179900765: 1062</title></circle>
<circle cx="195.450" cy="245.000" r="3" fill="#2463a4"><title>18.122388144023716: 1062</title></circle>
<circle cx="216.155" cy="245.000" r="3" fill="#2463a4"><title>19.124278623145074: 1062</title></circle>
<circle cx="236.699" cy="245.000" r="3" fill="#2463a4"><title>20.118415154982358: 1062</title></circle>
<circle cx="257.501" cy="245.000" r="3" fill="#2463a4"><title>21.125036072917283: 1062</title></circle>
<circle cx="278.124" cy="245.000" r="3" fill="#2463a4"><title>22.122991994023323: 1062</title></circle>
<circle cx="298.211" cy="245.000" r="3" fill="#2463a4"><title>23.094996242783964: 1062</title></circle>
<circle cx="319.468" cy="245.000" r="3" fill="#2463a4"><title>24.123640256933868: 1062</title></circle>
<circle cx="340.154" cy="245.000" r="3" fill="#2463a4"><title>25.12463249405846: 1062</title></circle>
<circle cx="360.887" cy="245.000" r="3" fill="#2463a4"><title>26.127919923048466: 1062</title></circle>
<circle cx="381.262" cy="245.000" r="3" fill="#2463a4"><title>27.11385508812964: 1062</title></circle>
<circle cx="402.047" cy="245.000" r="3" fill="#2463a4"><title>28.119662013836205: 1062</title></circle>
<circle cx="422.682" cy="245.000" r="3" fill="#2463a4"><title>29.118175433017313: 1062</title></circle>
<circle cx="443.521" cy="245.000" r="3" fill="#2463a4"><title>30.126618722919375: 1062</title></circle>
<circle cx="464.110" cy="245.000" r="3" fill="#2463a4"><title>31.12290092976764: 1062</title></circle>
<circle cx="484.811" cy="245.000" r="3" fill="#2463a4"><title>32.12464697100222: 1062</title></circle>
<circle cx="505.693" cy="245.000" r="3" fill="#2463a4"><title>33.1351495180279: 1062</title></circle>
<circle cx="526.162" cy="245.000" r="3" fill="#2463a4"><title>34.12562683690339: 1062</title></circle>
<circle cx="546.870" cy="245.000" r="3" fill="#2463a4"><title>35.12769841076806: 1062</title></circle>
<circle cx="567.365" cy="245.000" r="3" fill="#2463a4"><title>36.11945178313181: 1062</title></circle>
<circle cx="587.943" cy="245.000" r="3" fill="#2463a4"><title>37.115241889841855: 1062</title></circle>
<circle cx="608.824" cy="245.000" r="3" fill="#2463a4"><title>38.12567028775811: 1062</title></circle>
<circle cx="629.444" cy="245.000" r="3" fill="#2463a4"><title>39.12349493196234: 1062</title></circle>
<circle cx="649.889" cy="245.000" r="3" fill="#2463a4"><title>40.11282579600811: 1062</title></circle>
<circle cx="670.836" cy="245.000" r="3" fill="#2463a4"><title>41.12644474580884: 1062</title></circle>
<circle cx="691.563" cy="245.000" r="3" fill="#2463a4"><title>42.12941315211356: 1062</title></circle>
<circle cx="712.030" cy="245.000" r="3" fill="#2463a4"><title>43.119814932812005: 1062</title></circle>
<circle cx="732.602" cy="245.000" r="3" fill="#2463a4"><title>44.11532995617017: 1062</title></circle>
<circle cx="753.526" cy="245.000" r="3" fill="#2463a4"><title>45.12782714981586: 1062</title></circle>
<circle cx="774.162" cy="245.000" r="3" fill="#2463a4"><title>46.12640964798629: 1062</title></circle>
<circle cx="794.883" cy="245.000" r="3" fill="#2463a4"><title>47.12913516908884: 1062</title></circle>
<circle cx="815.479" cy="245.000" r="3" fill="#2463a4"><title>48.125761648174375: 1062</title></circle>
<circle cx="836.177" cy="245.000" r="3" fill="#2463a4"><title>49.12736596306786: 1062</title></circle>
<circle cx="856.643" cy="245.000" r="3" fill="#2463a4"><title>50.11771576479077: 1062</title></circle>
<circle cx="876.962" cy="245.000" r="3" fill="#2463a4"><title>51.10093565378338: 1062</title></circle>
<circle cx="898.058" cy="245.000" r="3" fill="#2463a4"><title>52.12177154608071: 1062</title></circle>
<circle cx="918.835" cy="245.000" r="3" fill="#2463a4"><title>53.12718226201832: 1062</title></circle>
<circle cx="939.199" cy="245.000" r="3" fill="#2463a4"><title>54.11260380875319: 1062</title></circle>
<circle cx="960.000" cy="245.000" r="3" fill="#2463a4"><title>55.11918380111456: 1062</title></circle>
</svg>
