<svg xmlns="http://www.w3.org/2000/svg" width="1000" height="280" viewBox="0 0 1000 280">
<rect width="100%" height="100%" fill="white"/>
<text x="20" y="25" font-size="16">Raw telemetry overlapping rank measurement windows</text>
<text x="20" y="60" font-size="13">kunlunxin/f396486d-9850-50e4-81c4-50f2e9f6ca87: Device utilization (%) [0, 0]</text>
<circle cx="30.000" cy="135.000" r="3" fill="#2463a4"><title>7.096324893645942: 0</title></circle>
<circle cx="86.033" cy="135.000" r="3" fill="#2463a4"><title>8.122313995845616: 0</title></circle>
<circle cx="140.809" cy="135.000" r="3" fill="#2463a4"><title>9.125303146895021: 0</title></circle>
<circle cx="195.326" cy="135.000" r="3" fill="#2463a4"><title>10.12352827982977: 0</title></circle>
<circle cx="250.052" cy="135.000" r="3" fill="#2463a4"><title>11.125597980804741: 0</title></circle>
<circle cx="304.468" cy="135.000" r="3" fill="#2463a4"><title>12.1219737729989: 0</title></circle>
<circle cx="358.984" cy="135.000" r="3" fill="#2463a4"><title>13.12018815567717: 0</title></circle>
<circle cx="413.852" cy="135.000" r="3" fill="#2463a4"><title>14.12486155796796: 0</title></circle>
<circle cx="468.387" cy="135.000" r="3" fill="#2463a4"><title>15.12341247079894: 0</title></circle>
<circle cx="522.682" cy="135.000" r="3" fill="#2463a4"><title>16.117581888101995: 0</title></circle>
<circle cx="577.006" cy="135.000" r="3" fill="#2463a4"><title>17.112285252660513: 0</title></circle>
<circle cx="631.804" cy="135.000" r="3" fill="#2463a4"><title>18.11567384377122: 0</title></circle>
<circle cx="687.021" cy="135.000" r="3" fill="#2463a4"><title>19.126717862673104: 0</title></circle>
<circle cx="741.401" cy="135.000" r="3" fill="#2463a4"><title>20.122446945868433: 0</title></circle>
<circle cx="795.201" cy="135.000" r="3" fill="#2463a4"><title>21.10754767479375: 0</title></circle>
<circle cx="850.605" cy="135.000" r="3" fill="#2463a4"><title>22.122029800899327: 0</title></circle>
<circle cx="904.754" cy="135.000" r="3" fill="#2463a4"><title>23.113531553652138: 0</title></circle>
<circle cx="960.000" cy="135.000" r="3" fill="#2463a4"><title>24.12510955100879: 0</title></circle>
<text x="20" y="170" font-size="13">kunlunxin/f396486d-9850-50e4-81c4-50f2e9f6ca87: Allocated device memory (MiB) [676, 676]</text>
<circle cx="30.000" cy="245.000" r="3" fill="#2463a4"><title>7.096324893645942: 676</title></circle>
<circle cx="86.033" cy="245.000" r="3" fill="#2463a4"><title>8.122313995845616: 676</title></circle>
<circle cx="140.809" cy="245.000" r="3" fill="#2463a4"><title>9.125303146895021: 676</title></circle>
<circle cx="195.326" cy="245.000" r="3" fill="#2463a4"><title>10.12352827982977: 676</title></circle>
<circle cx="250.052" cy="245.000" r="3" fill="#2463a4"><title>11.125597980804741: 676</title></circle>
<circle cx="304.468" cy="245.000" r="3" fill="#2463a4"><title>12.1219737729989: 676</title></circle>
<circle cx="358.984" cy="245.000" r="3" fill="#2463a4"><title>13.12018815567717: 676</title></circle>
<circle cx="413.852" cy="245.000" r="3" fill="#2463a4"><title>14.12486155796796: 676</title></circle>
<circle cx="468.387" cy="245.000" r="3" fill="#2463a4"><title>15.12341247079894: 676</title></circle>
<circle cx="522.682" cy="245.000" r="3" fill="#2463a4"><title>16.117581888101995: 676</title></circle>
<circle cx="577.006" cy="245.000" r="3" fill="#2463a4"><title>17.112285252660513: 676</title></circle>
<circle cx="631.804" cy="245.000" r="3" fill="#2463a4"><title>18.11567384377122: 676</title></circle>
<circle cx="687.021" cy="245.000" r="3" fill="#2463a4"><title>19.126717862673104: 676</title></circle>
<circle cx="741.401" cy="245.000" r="3" fill="#2463a4"><title>20.122446945868433: 676</title></circle>
<circle cx="795.201" cy="245.000" r="3" fill="#2463a4"><title>21.10754767479375: 676</title></circle>
<circle cx="850.605" cy="245.000" r="3" fill="#2463a4"><title>22.122029800899327: 676</title></circle>
<circle cx="904.754" cy="245.000" r="3" fill="#2463a4"><title>23.113531553652138: 676</title></circle>
<circle cx="960.000" cy="245.000" r="3" fill="#2463a4"><title>24.12510955100879: 676</title></circle>
</svg>
