<svg xmlns="http://www.w3.org/2000/svg" width="1000" height="280" viewBox="0 0 1000 280">
<rect width="100%" height="100%" fill="white"/>
<text x="20" y="25" font-size="16">Raw telemetry overlapping rank measurement windows</text>
<text x="20" y="60" font-size="13">kunlunxin/f396486d-9850-50e4-81c4-50f2e9f6ca87: Device utilization (%) [83, 100]</text>
<circle cx="30.000" cy="135.000" r="3" fill="#2463a4"><title>7.119387135840952: 83</title></circle>
<circle cx="81.347" cy="89.706" r="3" fill="#2463a4"><title>8.113938560709357: 97</title></circle>
<circle cx="133.644" cy="96.176" r="3" fill="#2463a4"><title>9.126878099050373: 95</title></circle>
<circle cx="185.479" cy="92.941" r="3" fill="#2463a4"><title>10.13087746500969: 96</title></circle>
<circle cx="236.675" cy="102.647" r="3" fill="#2463a4"><title>11.122497241012752: 93</title></circle>
<circle cx="288.396" cy="80.000" r="3" fill="#2463a4"><title>12.124282352626324: 100</title></circle>
<circle cx="340.099" cy="92.941" r="3" fill="#2463a4"><title>13.125742012634873: 96</title></circle>
<circle cx="391.758" cy="83.235" r="3" fill="#2463a4"><title>14.126316950656474: 99</title></circle>
<circle cx="443.425" cy="83.235" r="3" fill="#2463a4"><title>15.127059614751488: 99</title></circle>
<circle cx="494.701" cy="99.412" r="3" fill="#2463a4"><title>16.120241758879274: 94</title></circle>
<circle cx="546.237" cy="80.000" r="3" fill="#2463a4"><title>17.118443116080016: 100</title></circle>
<circle cx="597.600" cy="89.706" r="3" fill="#2463a4"><title>18.11330512398854: 97</title></circle>
<circle cx="649.798" cy="80.000" r="3" fill="#2463a4"><title>19.124333562795073: 100</title></circle>
<circle cx="701.016" cy="109.118" r="3" fill="#2463a4"><title>20.116379010025412: 91</title></circle>
<circle cx="753.251" cy="131.765" r="3" fill="#2463a4"><title>21.128131692763418: 84</title></circle>
<circle cx="804.290" cy="80.000" r="3" fill="#2463a4"><title>22.116715672891587: 100</title></circle>
<circle cx="856.458" cy="80.000" r="3" fill="#2463a4"><title>23.127156083006412: 100</title></circle>
<circle cx="907.353" cy="86.471" r="3" fill="#2463a4"><title>24.11293969163671: 98</title></circle>
<circle cx="960.000" cy="83.235" r="3" fill="#2463a4"><title>25.13267405796796: 99</title></circle>
<text x="20" y="170" font-size="13">kunlunxin/f396486d-9850-50e4-81c4-50f2e9f6ca87: Allocated device memory (MiB) [708, 16576]</text>
<circle cx="30.000" cy="245.000" r="3" fill="#2463a4"><title>7.119387135840952: 708</title></circle>
<circle cx="81.347" cy="245.000" r="3" fill="#2463a4"><title>8.113938560709357: 708</title></circle>
<circle cx="133.644" cy="244.889" r="3" fill="#2463a4"><title>9.126878099050373: 740</title></circle>
<circle cx="185.479" cy="244.889" r="3" fill="#2463a4"><title>10.13087746500969: 740</title></circle>
<circle cx="236.675" cy="245.000" r="3" fill="#2463a4"><title>11.122497241012752: 708</title></circle>
<circle cx="288.396" cy="245.000" r="3" fill="#2463a4"><title>12.124282352626324: 708</title></circle>
<circle cx="340.099" cy="245.000" r="3" fill="#2463a4"><title>13.125742012634873: 708</title></circle>
<circle cx="391.758" cy="245.000" r="3" fill="#2463a4"><title>14.126316950656474: 708</title></circle>
<circle cx="443.425" cy="245.000" r="3" fill="#2463a4"><title>15.127059614751488: 708</title></circle>
<circle cx="494.701" cy="245.000" r="3" fill="#2463a4"><title>16.120241758879274: 708</title></circle>
<circle cx="546.237" cy="245.000" r="3" fill="#2463a4"><title>17.118443116080016: 708</title></circle>
<circle cx="597.600" cy="245.000" r="3" fill="#2463a4"><title>18.11330512398854: 708</title></circle>
<circle cx="649.798" cy="245.000" r="3" fill="#2463a4"><title>19.124333562795073: 708</title></circle>
<circle cx="701.016" cy="244.889" r="3" fill="#2463a4"><title>20.116379010025412: 740</title></circle>
<circle cx="753.251" cy="244.432" r="3" fill="#2463a4"><title>21.128131692763418: 872</title></circle>
<circle cx="804.290" cy="190.000" r="3" fill="#2463a4"><title>22.116715672891587: 16576</title></circle>
<circle cx="856.458" cy="190.000" r="3" fill="#2463a4"><title>23.127156083006412: 16576</title></circle>
<circle cx="907.353" cy="190.000" r="3" fill="#2463a4"><title>24.11293969163671: 16576</title></circle>
<circle cx="960.000" cy="190.000" r="3" fill="#2463a4"><title>25.13267405796796: 16576</title></circle>
</svg>
